<svg xmlns="http://www.w3.org/2000/svg" viewBox="0 0 1024 1024"><defs><style>      .cls-1 {        fill: #333;      }    </style></defs><g><g id="Ebene_1"><g><g><path class="cls-1" d="M355.200027,467.105597h0c-2.100006,0-3.600006-2.100006-2.899994-4,13.5-37.899994,34.799988-76,63.600006-113.800018,5-6.600006,12.700012-10.799988,21-11.399994s16.5,2.399994,22.5,8.200012l47.899994,46.5,48.500031-132.800018c3.200012-8.899994,10.599976-15.699997,19.799988-18.199997s19-.399994,26.299988,5.699997h0c54.099976,45,180.099976,190.799988,180.099976,314.399963s-100.200012,223.799988-223.799988,223.799988c-68.318885,0-87.5-9.5-118.600006-28.599976-8.414088-5.295565-15.642943-13.251533-18.799988-22.799988-1.457934-4.409508-2.200012-8.200012-2.200012-12.5v-16.200012c0-4.400024,3.600006-8,8-8h24.5c2.700012,0,5.200012,1.099976,7.100006,2.900024,17.299988,17,40.399994,26.799988,99.900024,26.799988,91.400024,0,165.399963-64,165.399963-165.400024s-74.400024-190.700012-127.700012-241.5l-49.200012,134.700012c-3.400024,9.200012-11.299988,16.200012-20.900024,18.399994-9.599976,2.200012-19.700012-.600006-26.799988-7.5l-55.799988-54.100006c-11.200012,17.200012-17.667507,35.921822-28.100006,51.200012-2.963492,4.339976-7,5.299988-12.799988,5.200012"></path><path class="cls-1" d="M587.500015,683.605566c3,0,5.900024-.5,8.799988-1.299988,39.400024-12.400024,70.299988-43.299988,82.700012-82.700012h0c4.799988-15.400024-3.700012-31.799988-19.099976-36.700012-15.400024-4.799988-31.799988,3.700012-36.599976,19.099976-6.700012,21.200012-23.299988,37.900024-44.599976,44.599976-13.799988,4.299988-22.299988,18-20.099976,32.299988,2.200012,14.200012,14.5,24.799988,28.900024,24.799988h0l-.000122-.099915Z"></path></g><path class="cls-1" d="M395.300003,641.705603v79.799988c0,6.700012-5.5,12.200012-12.200012,12.200012h-36.899994c-6.700012,0-12.200012-5.5-12.200012-12.200012v-79.799988h-79.800003c-6.699997,0-12.199997-5.5-12.199997-12.200012v-36.900024c0-6.700012,5.5-12.200012,12.199997-12.200012h79.800003v-79.799988c0-6.700012,5.5-12.200012,12.200012-12.200012h36.899994c6.700012,0,12.200012,5.5,12.200012,12.200012v79.799988h79.799988c6.700012,0,12.200012,5.5,12.200012,12.200012v36.900024c0,6.700012-5.5,12.200012-12.200012,12.200012h-79.799988Z"></path></g></g></g></svg>