<svg xmlns="http://www.w3.org/2000/svg" id="Ebene_1" viewBox="0 0 1024 1024"><defs><style>      .st0, .st1 {        fill: #323232;      }      .st1 {        stroke: #323232;        stroke-miterlimit: 10;      }    </style></defs><circle class="st0" cx="553.9" cy="474.2" r="63.5"></circle><circle class="st0" cx="331.3" cy="257.8" r="38.7"></circle><circle class="st0" cx="769.8" cy="687.8" r="38.7"></circle><path class="st1" d="M726,474.6h0Z"></path><path class="st1" d="M726,474.7h0c35.5-47.8,60.8-94,73.5-134.2,13.8-43.6,11.6-77.7-6.2-99v-.3l-3.5-3.5c-12.4-12.4-29.8-18.7-51.8-18.7-47.3,0-114.5,30-185.2,82.4-62.9-46.5-123-75-168.6-80.3,7.2,10.4,11.5,23.1,11.5,36.7s-.6,10.4-1.9,15.4c22,5.3,48.8,16.9,77.8,33.9,13.3,7.8,27,16.6,40.8,26.4-17.7,15-35.1,31.1-51.9,47.9s-32.8,34.1-47.9,51.9c-33.3-47.2-51.6-86.9-59.2-115-6.9,2.5-14.4,3.9-22.2,3.9s-20.7-2.6-29.5-7.2c7.9,44.2,35.7,100.2,78.8,158.7-11.9,16.1-22.8,32.1-32.4,47.9,17.6-2.1,35.5,4,48.1,16.9,5.1-8,10.6-16.2,16.3-24.4,15.2,17.9,31.4,35.5,48.3,52.4s34.6,33.2,52.4,48.3c-8,5.7-16,11.1-23.9,16.2,9.7,10.3,15.6,24.2,15.6,39.5s-.3,6.6-.8,9.8c16.3-9.9,32.9-21.1,49.5-33.4,60.4,44.6,118.8,73,163.6,79.7-6.6-9.7-10.5-21.5-10.5-34.1s1-12.4,2.8-18.2c-21.5-5.7-47.4-17.1-74.9-33.1-13.3-7.8-27-16.6-40.8-26.4,17.7-15,35.1-31.1,51.9-47.9,16.8-16.7,32.8-34.1,47.9-51.9,30.4,43.1,52,85.6,60.2,118.2,4.4-1,9-1.5,13.7-1.5,14.8,0,28.3,5.3,38.8,14-4.5-45.7-33.4-107.2-80.5-170.9h.2ZM610.9,531.7h0l-2,2c-17.7,17.6-36.2,34.4-55.2,50.1-19.8-16.3-39.1-33.9-57.7-52.4-18.8-18.8-36.4-38.2-52.5-57.7,16-19.4,33.5-38.6,52.1-57.2s37.5-35.8,57.2-52c19.8,16.3,39.2,33.9,57.7,52.4s36.3,38,52.4,57.7c-16,19.4-33.5,38.6-52,57.1h0ZM645.6,381.8c-17-17-34.6-33.2-52.4-48.3,14.3-10.2,28.4-19.3,42-27.3,40.7-23.8,78.5-33.5,102.8-37.5,21.6-3.6,21.1-.4,23.7,2.2,9.4,9.9-3.5,72.8-67.8,163.3-15.1-17.8-31.3-35.4-48.3-52.4h0Z"></path><path class="st1" d="M385.9,701.3v80.3c0,6.8-5.5,12.3-12.3,12.3h-37.1c-6.8,0-12.3-5.5-12.3-12.3v-80.3h-80.3c-6.8,0-12.3-5.5-12.3-12.3v-37.1c0-6.8,5.5-12.3,12.3-12.3h80.3v-80.3c0-6.8,5.5-12.3,12.3-12.3h37.1c6.8,0,12.3,5.5,12.3,12.3v80.3h80.3c6.8,0,12.3,5.5,12.3,12.3v37.1c0,6.8-5.5,12.3-12.3,12.3h-80.3Z"></path></svg>