<svg xmlns="http://www.w3.org/2000/svg" id="Layer_1" data-name="Layer 1" width="51.41" height="15.77" viewBox="0 0 51.41 15.77"><defs><style>      .cls-1 {        fill: #323232;      }    </style></defs><title>LC_Car_tiny</title><path class="cls-1" d="M53.9,28.89l.59-1.29h1.65a1.11,1.11,0,0,0,0-2.22H52.25a1.11,1.11,0,1,0,0,2.22h1.17l-.89,1.3a14.39,14.39,0,0,1-1.71-.44,16.63,16.63,0,0,1-1.59-.61,43.68,43.68,0,0,0-11-3.15,17.4,17.4,0,0,0-8.57.14,17,17,0,0,0-4.93,2,17.3,17.3,0,0,0-3,2.3,26.55,26.55,0,0,0-4.5.05S8.45,31.15,6,35.08a2.59,2.59,0,0,0,0,1.67l7.1,0a5.08,5.08,0,0,0,9.45,0l18,.06a5.08,5.08,0,0,0,9.37,0l6,0a4.87,4.87,0,0,0-2-8Zm-36.11,9a2.94,2.94,0,1,1,2.94-2.94A2.94,2.94,0,0,1,17.79,37.86Zm27.44,0a2.94,2.94,0,1,1,2.94-2.94A2.94,2.94,0,0,1,45.23,37.86Z" transform="translate(-5.84 -24.23)"></path></svg>