<svg xmlns="http://www.w3.org/2000/svg" xmlns:xlink="http://www.w3.org/1999/xlink" id="Ebene_1" x="0px" y="0px" viewBox="0 0 1024 1024" style="enable-background:new 0 0 1024 1024;" xml:space="preserve"><style type="text/css">	.st0{fill:#323232;}</style><path class="st0" d="M846.5,443.7l8.8-19.3h24.7c9.2,0,16.7-7.4,16.7-16.7c0-9.3-7.4-16.7-16.7-16.7h-58.2 c-9.2,0-16.7,7.4-16.7,16.7c0,9.3,7.4,16.7,16.7,16.7h17.5l-13.3,19.5c-8.1-1.5-16.7-3.7-25.7-6.6c-8.7-2.8-16.6-6-23.7-9.2 c-21.9-9.6-47-19.1-75.1-27.5c-32.5-9.7-62.5-15.8-89-19.7c-17.2-4-40.5-7.7-68.2-6.9c-24.1,0.7-44.5,4.7-60.1,8.9 c-19.2,4.5-45.7,13.1-73.7,30.1c-18.8,11.3-33.6,23.7-44.8,34.5c-25.7,0.2-46.8-3.2-67.3,0.7c0,0-132.3,29.2-169,88 c-3.8,6.2-2.1,15.4-0.6,25c35.5,0.1,70.9,0.3,106.3,0.4c11.1,28.3,38.6,48.3,70.8,48.3s59.3-19.7,70.5-47.8 c36.6,0.1,73.3,0.3,109.9,0.4c-6.7-5-12.2-11.6-16.2-19.2c-11.4-21.8-8-48.8,8.6-67.6c3.1-3,7.3-6.4,12.6-9.5 c8.5-4.9,16.7-7.1,22.2-8.1c24.9-3.1,49.2,9.4,60.6,31.2c10.6,20.3,8.4,45.1-5.6,63.8l5.1,9.8c24.2,0,48.3,0.2,72.6,0.3 c11.4,27.5,38.6,46.8,70.2,46.8c31.7,0,58.4-19.1,69.9-46.3c29.9,0.1,59.8,0.2,89.7,0.3c20.4-23.3,25.9-55.1,14.1-81.2 c-12.4-27.6-39-37.2-44.1-39l0,0L846.5,443.7z M306.1,577.9c-24.3,0-44-19.7-44-44s19.7-44,44-44s44,19.7,44,44 S330.4,577.9,306.1,577.9z M716.9,577.9c-24.3,0-44-19.7-44-44s19.7-44,44-44s44,19.7,44,44S741.1,577.9,716.9,577.9z"></path><path class="st0" d="M603.9,628.5l-43.8-83.4c11.3-14.1,13.7-34,4.5-51.5c-9.7-18.3-29.7-27.7-49-25.2l20.7,39.4l-27.5,14.5 l-21.4-39.6c-13.6,14.2-16.7,36.2-7,54.6c9.2,17.4,26.9,26.7,44.9,25.5l43.8,83.4c2,3.7,6.2,4.9,9.8,3.1l21.1-11.1 c4.3-1.7,5.9-6.6,3.7-9.6l0,0L603.9,628.5z"></path></svg>