<svg xmlns="http://www.w3.org/2000/svg" viewBox="0 0 1080 1080"><defs><style>      .cls-1 {        fill: #fff;      }    </style></defs><g><g id="Ebene_1"><g><path class="cls-1" d="M540,55.2c65.47,0,128.95,12.81,188.69,38.08,57.72,24.42,109.57,59.38,154.11,103.91,44.54,44.54,79.5,96.39,103.91,154.11,25.27,59.74,38.08,123.23,38.08,188.69s-12.81,128.95-38.08,188.69c-24.42,57.72-59.38,109.57-103.91,154.11-44.54,44.54-96.39,79.5-154.11,103.91-59.74,25.27-123.23,38.08-188.69,38.08s-128.95-12.81-188.69-38.08c-57.72-24.42-109.57-59.38-154.11-103.91-44.54-44.54-79.5-96.39-103.91-154.11-25.27-59.74-38.08-123.23-38.08-188.69s12.81-128.95,38.08-188.69c24.42-57.72,59.38-109.57,103.91-154.11,44.54-44.54,96.39-79.5,154.11-103.91,59.74-25.27,123.23-38.08,188.69-38.08M540,13.7C249.33,13.7,13.7,249.33,13.7,540s235.63,526.3,526.3,526.3,526.3-235.63,526.3-526.3S830.67,13.7,540,13.7h0Z"></path><path class="cls-1" d="M719.53,617.7c-7.74-7.62-20.19-7.53-27.81.21l-130.19,132.16-1.87-467.99c-.04-10.83-8.84-19.58-19.66-19.58h-.08c-10.86.04-19.63,8.88-19.58,19.74l1.87,468.28-134.1-132.78c-7.72-7.64-20.17-7.58-27.81.14-7.64,7.72-7.58,20.17.14,27.81l167.78,166.14c.16.16.34.3.51.46.29.27.58.55.89.8.18.15.38.28.57.42.32.24.64.49.98.72.16.11.34.2.5.31.38.23.75.47,1.14.68.13.07.27.13.4.19.44.22.88.44,1.33.63.1.04.21.08.32.12.49.19.98.37,1.48.53.11.03.22.05.33.08.5.14,1.01.28,1.52.38.2.04.4.06.6.09.43.07.86.15,1.3.19.63.06,1.27.09,1.91.1.01,0,.03,0,.04,0h.12c.6,0,1.2-.04,1.79-.1,4.71-.45,8.93-2.56,12.07-5.74,0,0,.02-.01.02-.02l163.67-166.14c7.62-7.74,7.53-20.19-.21-27.81Z"></path></g></g></g></svg>