<svg xmlns="http://www.w3.org/2000/svg" id="Ebene_1" viewBox="0 0 1024 1024"><defs><style>      .st0 {        fill: #323232;      }    </style></defs><path class="st0" d="M677.8,389.9l-140.2-79c-14.9-8.4-33.5-8.3-48.3.2l-143.5,82.1c-15.1,8.6-24.5,24.8-24.6,42.1,0,.1,0,.2,0,.3v158c0,17.7,9.6,34,25,42.7l137.8,77.3c7.5,4.2,15.7,6.3,23.9,6.3s15.8-1.9,23.1-5.8l145.9-77.9c16-8.5,25.9-25.1,25.9-43.2v-160.5c0-17.6-9.5-34-24.9-42.6ZM636.6,417l-111.8,64.6c-10.5,6.1-23.5,6-34-.1l-104-61.1,126.8-72.6,123,69.3ZM529.6,548.9c0-12,6.5-23.2,16.9-29.2l112.5-65v141.4l-129.4,69.1v-116.3ZM485.7,548.6v115.7l-120.6-67.7v-138.3l104,61.2c10.3,6,16.6,17.2,16.6,29.1Z"></path><g><path class="st0" d="M277.7,430.3c17.1-49.1,48.6-90.8,91.1-120.7,0,0,.1,0,.2-.1,42.6-30,92.7-45.5,144.7-44.9,25.1.3,49.9,4.3,73.7,12,24.1,7.8,46.8,19.1,67.3,33.7,2.6,1.9,6.1,1.9,8.8,0l20.2-14.2c2-1.4,3.2-3.7,3.2-6.1,0-2.4-1.1-4.7-3-6.2-23.9-18-50.3-32.1-78.7-42-28-9.7-57.3-15-86.9-15.8-61.7-1.6-120.9,16.3-171.4,51.8-50.4,35.4-87.3,85-106.7,143.5-9.3,28.1-14.3,57.4-14.7,87-.4,28.1,3.3,55.9,11,82.8l-20.1,13.8c-3.5,2.4-5.4,6.5-5.1,10.7.4,4.2,3,7.9,6.9,9.6l70.6,31.4c1.5.7,3.2,1,4.8,1,2.3,0,4.6-.7,6.6-2.1,3.4-2.3,5.3-6.1,5.1-10.2l-3.7-77.1c-.2-4.2-2.7-8-6.5-9.9-3.8-1.9-8.3-1.6-11.8.8l-13,8.9c-4.9-21-6.9-42.6-6.2-64.4.9-25,5.5-49.7,13.7-73.4Z"></path><path class="st0" d="M812.8,407.3c-.4-4.1-2.9-7.7-6.6-9.5-.1,0-.2-.1-.3-.2l-70.6-31.3c-3.7-1.7-8-1.3-11.4,1.1-3.4,2.3-5.3,6.1-5.1,10.2l3.8,77.1c.2,4.2,2.7,8,6.5,9.9,3.8,1.9,8.3,1.6,11.8-.8l11.5-7.9c4.9,21,6.9,42.6,6.2,64.3-.9,25-5.5,49.7-13.7,73.4-17.1,49.1-48.6,90.9-91.2,120.8-42.6,30-92.7,45.5-144.7,44.9-25.1-.3-49.9-4.3-73.7-12-24.1-7.8-46.8-19.1-67.3-33.7-2.6-1.9-6.1-1.9-8.8,0l-20.2,14.2c-2,1.4-3.2,3.7-3.2,6.1,0,2.4,1.1,4.7,3,6.2,23.9,18,50.3,32.1,78.7,42,28,9.7,57.3,15,86.9,15.8,2.5,0,5,0,7.5,0,59,0,115.5-17.9,163.9-51.9,50.4-35.4,87.3-85,106.7-143.4,9.3-28.1,14.3-57.4,14.7-87,.4-28.1-3.3-55.9-11-82.8l21.6-14.8c3.5-2.4,5.4-6.5,5-10.8Z"></path></g></svg>