<svg xmlns="http://www.w3.org/2000/svg" id="Layer_1" data-name="Layer 1" width="30.389" height="30.285" viewBox="0 0 30.389 30.285"><defs><style>      .cls-1 {        fill: #323232;      }    </style></defs><title>LC_Physics_tiny_07</title><circle class="cls-1" cx="15.394" cy="15.029" r="3.741"></circle><circle class="cls-1" cx="2.28" cy="2.28" r="2.28"></circle><circle class="cls-1" cx="27.99" cy="27.89" r="2.28"></circle><path class="cls-1" d="M15.5,25.285a24.387,24.387,0,0,0,9.179,4.56,3.827,3.827,0,0,1-.531-1.944,2.594,2.594,0,0,1,.177-1.149,19.25,19.25,0,0,1-4.136-1.873c-.76-.442-1.537-.949-2.321-1.5q1.44-1.236,2.857-2.651c.943-.942,2.057-2.15,2.97-3.24a23.791,23.791,0,0,1,3.446,6.657,3.823,3.823,0,0,1,3.117.631c-.377-2.646-2.045-6.1-4.684-9.674A37.13,37.13,0,0,0,27.7,11.87,23.179,23.179,0,0,0,29.89,7.175h-.012A10.057,10.057,0,0,0,30.4,4.088V4.005a4.044,4.044,0,0,0-1.037-2.957A4.076,4.076,0,0,0,26.319.011h-.064c-2.127,0-4.943,1.031-8.007,2.893-.96.571-1.938,1.225-2.928,1.95C11.661,2.149,8.162.482,5.5.146a3.821,3.821,0,0,1,.648,2.139,1.978,1.978,0,0,1-.112.931A17.9,17.9,0,0,1,10.566,5.2c.771.454,1.567.966,2.368,1.532C11.85,7.646,10.766,8.636,9.7,9.7s-1.827,1.9-2.652,2.864A22.823,22.823,0,0,1,3.62,5.908a3.814,3.814,0,0,1-1.326.236,4.36,4.36,0,0,1-1.72-.407,24.443,24.443,0,0,0,4.577,9.2A19.215,19.215,0,0,0,1.31,21.55C.491,24-.687,27.518.933,29.268c2.256,2.445,8.437-.206,9.485-.654a17.835,17.835,0,0,0,5.091-3.329Zm-4.148-.766c-.118.071-.082.053-.212.13A26.271,26.271,0,0,1,7.885,26.4,10.516,10.516,0,0,1,4.179,27.43H3.991a1.012,1.012,0,0,1-1-1c-.006-.548,0-.012,0-.017a14.211,14.211,0,0,1,2.192-6.163c.159-.277.33-.56.5-.842l.036-.059c.424-.7.854-1.249,1.361-1.962.9,1.054,1.85,2.091,2.845,3.087s2.039,1.956,3.087,2.846c-.659.471-1.019.8-1.661,1.2h0Zm9.3-8.094h0c-.607.683-1.237,1.349-1.891,2.009l-.118.111C17.606,19.582,16.51,20.572,15.4,21.5c-1.167-.96-2.3-2-3.4-3.087C10.89,17.3,9.853,16.159,8.9,15.011c.943-1.143,1.974-2.275,3.07-3.37l.459-.46a1.283,1.283,0,0,0-.094.1s.006,0,.012-.012l.094-.094.053-.053Q13.9,9.771,15.355,8.589c1.161.954,2.3,1.991,3.382,3.075s2.133,2.233,3.081,3.388c-.377.459-.766.919-1.166,1.373h.006Zm6.186-9.692a22.1,22.1,0,0,1-1.62,3.435q-.708,1.238-1.585,2.492c-.884-1.043-1.832-2.068-2.828-3.064h0c-.99-.989-2.015-1.938-3.058-2.822a28.517,28.517,0,0,1,4.766-2.745A10.5,10.5,0,0,1,26.225,3a2.522,2.522,0,0,1,.884.088.782.782,0,0,1,.124.089.515.515,0,0,1,.082.112,2.181,2.181,0,0,1,.094.718,8.485,8.485,0,0,1-.577,2.728h.012Z" transform="translate(-0.014 -0.005)"></path></svg>