<svg xmlns="http://www.w3.org/2000/svg" xmlns:xlink="http://www.w3.org/1999/xlink" id="Ebene_1" x="0px" y="0px" viewBox="0 0 1024 1024" style="enable-background:new 0 0 1024 1024;" xml:space="preserve"><style type="text/css">	.st0{fill:#323232;}</style><path class="st0" d="M719.2,535.2l8.9-19.3h24.7c9.2,0,16.6-7.4,16.6-16.6c0-9.2-7.4-16.6-16.6-16.6h-58.3 c-9.2,0-16.6,7.4-16.6,16.6c0,9.2,7.4,16.6,16.6,16.6H712l-13.3,19.5c-8-1.6-16.7-3.7-25.7-6.6c-8.7-2.8-16.6-6-23.7-9.2 c-21.9-9.6-47-19.1-75.2-27.5c-32.5-9.6-62.6-15.8-89-19.7c-17.2-4.1-40.5-7.7-68.2-6.9c-24.1,0.7-44.5,4.7-60.2,9 c-19.2,4.6-45.7,13.1-73.9,30.1c-18.8,11.4-33.6,23.6-44.9,34.5c-28.4,0.2-75.7-1.4-83.8,0.7c0,0-142.5,42.5-152.6,88.2 c-1.6,7.1-2.1,15.5-0.6,25c35.5,0.1,70.9,0.2,106.5,0.4c11.1,28.3,38.7,48.4,70.8,48.4s59.5-19.9,70.6-47.9 c90.1,0.3,180.1,0.6,270.2,0.9c11.5,27.5,38.6,46.9,70.2,46.9c31.7,0,58.5-19.1,70-46.4c29.9,0,59.9,0.2,89.8,0.3 c20.4-23.3,25.9-55.3,14.1-81.4c-12.4-27.7-39-37.3-44.1-39.1l0,0L719.2,535.2z M178.3,669.7c-24.2,0-44.1-19.7-44.1-44.1 s19.7-44.1,44.1-44.1s44.1,19.7,44.1,44.1S202.6,669.7,178.3,669.7z M589.4,669.7c-24.2,0-44.1-19.7-44.1-44.1s19.7-44.1,44.1-44.1 c24.3,0,44.1,19.7,44.1,44.1S613.8,669.7,589.4,669.7z"></path><rect x="381.9" y="336.4" transform="matrix(0.7071 -0.7071 0.7071 0.7071 -140.0921 402.6165)" class="st0" width="68" height="68"></rect><path class="st0" d="M488.3,397.6"></path><path class="st0" d="M1016.3,633.3H806.9c-4.3,0-7.7-3.4-7.7-7.7s3.4-7.7,7.7-7.7h209.4c4.3,0,7.7,3.4,7.7,7.7 S1020.6,633.3,1016.3,633.3z"></path><path class="st0" d="M1016.3,540.7H769.5c-4.3,0-7.7-3.4-7.7-7.7s3.4-7.7,7.7-7.7h246.8c4.3,0,7.7,3.4,7.7,7.7 S1020.6,540.7,1016.3,540.7z"></path><path class="st0" d="M1016.3,587H793.2c-4.3,0-7.7-3.4-7.7-7.7s3.4-7.7,7.7-7.7h223.1c4.3,0,7.7,3.4,7.7,7.7S1020.6,587,1016.3,587z "></path></svg>