<svg xmlns="http://www.w3.org/2000/svg" xmlns:xlink="http://www.w3.org/1999/xlink" id="Ebene_1" x="0px" y="0px" viewBox="0 0 1024 1024" style="enable-background:new 0 0 1024 1024;" xml:space="preserve"><style type="text/css">	.st0{fill:#323232;}</style><path class="st0" d="M849.1,420.2l9-19.5h24.8c9.3,0,16.8-7.5,16.8-16.8c0-9.3-7.5-16.8-16.8-16.8h-58.7c-9.3,0-16.8,7.5-16.8,16.8 c0,9.3,7.5,16.8,16.8,16.8h17.6l-13.4,19.7c-8.1-1.6-16.8-3.7-25.9-6.6c-8.8-2.8-16.7-6-23.8-9.2c-22-9.6-47.4-19.2-75.7-27.7 c-32.7-9.7-63-15.9-89.6-19.9c-17.3-4.1-40.8-7.8-68.7-7c-24.3,0.7-44.8,4.8-60.5,9.1c-19.4,4.6-46,13.2-74.3,30.3 c-18.9,11.4-33.8,23.8-45.1,34.6c-25.9,0.2-47.2-3.2-67.8,0.6c0,0-133.2,29.5-170.2,88.8c-3.8,6.2-2.1,15.5-0.6,25.1 c35.7,0.1,71.4,0.2,107.2,0.4c11.1,28.4,38.8,48.7,71.3,48.7s59.8-20,71.1-48.1c32.6,0.1,65.2,0.2,97.8,0.3v-71.3 c0-12.2,9.9-22,22-22c12.1,0,4.6-0.2,6,0.9l9.7,7.6l103.8,85.4c10.8,0,21.7,0,32.5,0.1c11.5,27.7,38.8,47.2,70.7,47.2 c31.9,0,58.8-19.2,70.5-46.6c30.2,0.1,60.2,0.2,90.4,0.3c20.5-23.5,26.1-55.6,14.2-81.9c-12.5-27.8-39.2-37.5-44.4-39.2l0,0 L849.1,420.2z M304.6,555.5c-24.5,0-44.4-19.9-44.4-44.4c0-24.5,19.9-44.4,44.4-44.4s44.4,19.9,44.4,44.4S329.1,555.5,304.6,555.5z  M718.4,555.5c-24.5,0-44.4-19.9-44.4-44.4c0-24.5,19.9-44.4,44.4-44.4c24.5,0,44.4,19.9,44.4,44.4S742.9,555.5,718.4,555.5z"></path><path class="st0" d="M567.6,672.9c-5.5,2.6-11.9,0.3-14.3-5.1l-23.5-51.2l-27.2,21.8c-1.8,1.5-4.1,2.4-6.7,2.4 c-6,0-10.8-4.8-10.8-10.8V467.8c0-6,4.8-10.8,10.8-10.8s5.1,1,7,2.5h0.1c0-0.1,124.2,104,124.2,104c4.6,3.8,5.1,10.7,1.4,15.2 c-1.6,1.9-3.8,3.2-6.2,3.6l-34.1,6.7l23.7,51.1c2.8,5.5,0.2,11.8-5.1,14.2l-39.1,18.3l0,0V672.9z"></path></svg>